<svg width="16" height="17" viewBox="0 0 16 17" fill="none" xmlns="http://www.w3.org/2000/svg">
<path d="M7.95693 12.7994L5.23196 14.441C5.11158 14.5176 4.98573 14.5504 4.8544 14.5394C4.72308 14.5285 4.60817 14.4847 4.50968 14.4081C4.41119 14.3315 4.33458 14.2356 4.27986 14.1205C4.22514 14.0054 4.2142 13.8769 4.24703 13.7351L4.96931 10.6326L2.55624 8.54779C2.4468 8.4493 2.37851 8.33701 2.35137 8.21094C2.32423 8.08487 2.33233 7.96186 2.37567 7.84192C2.41944 7.72154 2.4851 7.62305 2.57265 7.54644C2.6602 7.46984 2.78058 7.42059 2.93379 7.3987L6.1184 7.11964L7.34956 4.19768C7.40428 4.06636 7.4892 3.96787 7.60433 3.9022C7.71946 3.83654 7.83699 3.80371 7.95693 3.80371C8.07731 3.80371 8.19485 3.83654 8.30954 3.9022C8.42423 3.96787 8.50915 4.06636 8.56431 4.19768L9.79547 7.11964L12.9801 7.3987C13.1333 7.42059 13.2537 7.46984 13.3412 7.54644C13.4288 7.62305 13.4944 7.72154 13.5382 7.84192C13.582 7.9623 13.5903 8.08553 13.5632 8.2116C13.536 8.33767 13.4675 8.44973 13.3576 8.54779L10.9446 10.6326L11.6668 13.7351C11.6997 13.8774 11.6887 14.006 11.634 14.1212C11.5793 14.2363 11.5027 14.332 11.4042 14.4081C11.3057 14.4847 11.1908 14.5285 11.0595 14.5394C10.9281 14.5504 10.8023 14.5176 10.6819 14.441L7.95693 12.7994Z" fill="#FF5000"/>
</svg>
