<svg width="30" height="24" viewBox="0 0 30 24" fill="none" xmlns="http://www.w3.org/2000/svg">
<path d="M27.3427 20.6715C30.081 17.6996 29.8053 13.8832 29.7966 13.8397V2.23088C29.7966 1.84603 29.6437 1.47694 29.3715 1.2048C29.0994 0.932669 28.7303 0.779785 28.3455 0.779785H19.6389C18.0383 0.779785 16.7367 2.08142 16.7367 3.68198V13.8397C16.7367 14.2245 16.8895 14.5936 17.1617 14.8658C17.4338 15.1379 17.8029 15.2908 18.1878 15.2908H22.6542C22.6236 16.0082 22.4092 16.7057 22.0317 17.3165C21.2946 18.4788 19.9059 19.2726 17.9019 19.6731L16.7367 19.9053V23.9974H18.1878C22.2262 23.9974 25.3069 22.8786 27.3427 20.6715ZM11.3705 20.6715C14.1102 17.6996 13.833 13.8832 13.8243 13.8397V2.23088C13.8243 1.84603 13.6714 1.47694 13.3993 1.2048C13.1271 0.932669 12.7581 0.779785 12.3732 0.779785H3.6666C2.06604 0.779785 0.764404 2.08142 0.764404 3.68198V13.8397C0.764404 14.2245 0.917287 14.5936 1.18942 14.8658C1.46156 15.1379 1.83065 15.2908 2.2155 15.2908H6.68199C6.65133 16.0082 6.43698 16.7057 6.05947 17.3165C5.32231 18.4788 3.93361 19.2726 1.92964 19.6731L0.764404 19.9053V23.9974H2.2155C6.25391 23.9974 9.3346 22.8786 11.3705 20.6715Z" fill="white"/>
</svg>
